<svg fill="#fa314a" xmlns="http://www.w3.org/2000/svg"  viewBox="0 0 24 24" width="384px" height="384px"><path d="M 3 3 C 1.9069372 3 1 3.9069372 1 5 L 1 19 C 1 20.093063 1.9069372 21 3 21 L 21 21 C 22.093063 21 23 20.093063 23 19 L 23 7 C 23 5.9069372 22.093063 5 21 5 L 13.617188 5 L 13.171875 4.1074219 L 13.169922 4.1054688 C 12.832312 3.430585 12.13729 3 11.382812 3 L 3 3 z M 3 5 L 11.380859 5 L 12.382812 7 L 21 7 L 21 19 L 19 19 L 19 18 L 17 18 L 17 19 L 7 19 L 7 18 L 5 18 L 5 19 L 3 19 L 3 5 z M 8 9 C 7.602 9 7.2645156 9.2352656 7.1035156 9.5722656 L 12 12.640625 L 16.90625 9.5878906 C 16.74825 9.2428906 16.404 9 16 9 L 8 9 z M 7 11.757812 L 7 16 C 7 16.552 7.448 17 8 17 L 16 17 C 16.552 17 17 16.552 17 16 L 17 11.779297 L 12 14.892578 L 7 11.757812 z"/></svg>