<svg width="210" height="297" viewBox="0 0 210 297" fill="none" xmlns="http://www.w3.org/2000/svg">
<g clip-path="url(#clip0)">
<path d="M183.089 165.21L183.164 165.002L182.943 165.009L140.724 166.22L140.728 166.37L140.59 166.312C136.759 175.357 133.542 180.401 130.574 183.853C129.09 185.579 127.666 186.91 126.254 188.146C125.8 188.543 125.347 188.932 124.894 189.32C123.936 190.14 122.976 190.963 122.004 191.877L121.855 192.017L122.033 192.117C135.676 199.814 148.673 199.364 159.397 193.842C170.114 188.324 178.546 177.747 183.089 165.21Z" fill="#310707" stroke="#360505" stroke-width="0.3"/>
<path d="M140.202 111.865L140.045 112.089L140.318 112.101L182.591 113.922L182.673 113.925L182.72 113.858L211.962 72.2464L212.123 72.0161L211.842 72.0102L168.901 71.1095L168.821 71.1078L168.775 71.1733L140.202 111.865Z" fill="#822D2D" stroke="#360505" stroke-width="0.3"/>
<path d="M47.1791 48.5105L47.2907 48.7854L89.4303 38.5688L168.841 71.3981L168.867 71.4088L168.895 71.4094L211.836 72.3101L212.101 72.3157L211.969 72.0856C211.267 70.8613 209.52 68.7738 207.146 66.2446C204.769 63.7111 201.751 60.7232 198.498 57.6944C191.995 51.6396 184.538 45.4109 179.362 42.3272C154.249 27.366 128.611 24.0143 102.754 26.3219C83.2236 28.065 61.4383 40.0956 47.1791 48.5105Z" fill="#FF0000" stroke="#360505" stroke-width="0.3"/>
<path d="M117.578 80.2467L117.721 80.1108L117.552 80.0093C116.692 79.4938 115.84 78.9408 114.978 78.3818C111.262 75.971 107.373 73.4476 101.976 73.3275C95.3219 73.1794 86.4034 76.675 72.6604 88.3735L72.6525 88.3803L72.6455 88.3881C71.437 89.7491 70.1914 91.1041 68.9333 92.4728C62.3749 99.6077 55.4766 107.112 51.7119 117.748C47.2215 130.434 47.1915 147.553 57.4165 173.803L57.4197 173.811L57.4238 173.819C65.618 189.212 74.7526 203.971 87.3777 215.027C100.006 226.087 116.121 233.437 138.263 234.027C148.063 235.105 158.022 235.576 169.804 232.076C181.587 228.576 195.179 221.108 212.257 206.329L212.36 206.24L212.281 206.129L183.07 165.072L182.922 164.863L182.812 165.094C176.322 178.793 169.752 187.195 162.393 191.988C155.038 196.779 146.876 197.977 137.17 197.227C127.502 196.48 115.161 189.094 105.908 177.076C96.6597 165.065 90.5124 148.447 93.2084 129.26C95.6437 111.929 100.139 96.8316 117.578 80.2467Z" fill="#FF2A2A" stroke="#360505" stroke-width="0.3"/>
<path d="M169.021 71.3456L169.072 71.2722L169.032 71.1919C165.059 63.3072 155.357 54.8893 143.353 48.4421C131.345 41.9925 117.005 37.5001 103.73 37.4883C82.7626 37.4697 58.2267 39.0762 40.2182 53.1775C22.0818 67.379 7.8728 91.4639 3.25421 116.439C-1.44633 141.858 2.70012 171.452 14.7522 193.299C29.2052 219.498 55.269 237.095 80.7993 245.853C106.347 254.617 134.658 252.169 160.601 243.338C179.542 236.891 200.157 224.742 212.284 206.298L212.058 206.105C197.167 219.583 182.985 227.622 168.384 230.684C148.343 234.887 127.598 232.127 109.35 223.135C89.9568 213.578 70.6348 197.864 60.5867 176.223C57.6489 169.896 55.0504 158.084 54.2725 145.345C53.4946 132.606 54.5392 118.97 58.8647 108.988C62.6462 100.262 68.8049 91.8244 76.1031 85.6385C83.4027 79.4514 91.8279 75.5282 100.144 75.8005C108.544 76.0755 117.248 80.9205 124.512 87.8115C131.774 94.7007 137.577 103.616 140.182 111.995L140.325 111.951L140.448 112.037L169.021 71.3456Z" fill="#360505" stroke="black" stroke-width="0.3"/>
</g>
<defs>
<clipPath id="clip0">
<rect width="210" height="297" fill="white"/>
</clipPath>
</defs>
</svg>
