<?xml version="1.0"?><svg fill="#fa314a" xmlns="http://www.w3.org/2000/svg"  viewBox="0 0 24 24" width="384px" height="384px">    <path d="M 18.5 2 C 16.015 2 14 4.015 14 6.5 C 14 6.951 14.087938 7.3780625 14.210938 7.7890625 L 13.253906 8.7460938 L 11.982422 7.5449219 C 11.609422 7.1949219 11.119375 7 10.609375 7 L 8.8671875 7 C 8.0721875 7 7.3090937 7.3159062 6.7460938 7.8789062 L 1.8789062 12.746094 C 0.70790625 13.917094 0.70790625 15.817281 1.8789062 16.988281 L 6.2988281 21.412109 C 6.6818281 21.797109 7.1928906 22 7.7128906 22 C 8.0168906 22 8.3234219 21.930109 8.6074219 21.787109 L 14.025391 19.074219 L 15.419922 17.742188 C 16.231922 16.967188 16.247125 15.674859 15.453125 14.880859 L 14.285156 13.714844 L 17.210938 10.789062 C 17.621937 10.912062 18.049 11 18.5 11 C 20.985 11 23 8.985 23 6.5 C 23 5.841 22.850703 5.2182969 22.595703 4.6542969 L 21.003906 6.2460938 L 19.255859 5.7441406 L 18.753906 3.9960938 L 20.345703 2.4042969 C 19.781703 2.1492969 19.159 2 18.5 2 z M 17.144531 3.8242188 L 17.3125 4.4082031 L 17.814453 6.1582031 L 18.042969 6.9570312 L 18.84375 7.1875 L 20.591797 7.6875 L 21.177734 7.8554688 C 20.680734 8.8294688 19.667 9.5 18.5 9.5 C 18.247 9.5 17.975578 9.4535156 17.642578 9.3535156 L 16.783203 9.0957031 L 16.150391 9.7285156 L 13.226562 12.652344 L 12.347656 11.773438 L 15.271484 8.8496094 L 15.904297 8.2167969 L 15.646484 7.3574219 C 15.546484 7.0254219 15.5 6.753 15.5 6.5 C 15.5 5.333 16.169531 4.3202188 17.144531 3.8242188 z M 8.8671875 8.5 L 10.609375 8.5 C 10.737375 8.5 10.858172 8.5487188 10.951172 8.6367188 L 12.179688 9.7949219 L 11.271484 10.701172 L 10.210938 11.761719 L 11.271484 12.822266 L 14.390625 15.941406 C 14.520625 16.071406 14.538109 16.222781 14.537109 16.300781 C 14.536109 16.379781 14.515812 16.52925 14.382812 16.65625 L 13.150391 17.833984 L 7.9355469 20.447266 C 7.8665469 20.482266 7.7908906 20.5 7.7128906 20.5 C 7.5788906 20.5 7.453375 20.448516 7.359375 20.353516 L 2.9394531 15.927734 C 2.3554531 15.342734 2.3544531 14.391641 2.9394531 13.806641 L 7.8085938 8.9394531 C 8.0915937 8.6564531 8.4671875 8.5 8.8671875 8.5 z"/></svg>